<svg width="235" height="64" viewBox="0 0 235 64" fill="none" xmlns="http://www.w3.org/2000/svg">
<path fill-rule="evenodd" clip-rule="evenodd" d="M23.611 42.6995V21.3023H35.8056C38.8039 21.3023 41.179 21.954 42.8779 23.2938C44.5974 24.6266 45.4494 26.3523 45.4494 28.4444C45.4494 29.8368 45.0707 31.0992 44.3063 32.225L44.305 32.2269C43.5365 33.3383 42.4141 34.2062 40.9483 34.8288C39.5068 35.4536 37.8027 35.7599 35.8496 35.7599H29.6166V42.6995H23.611ZM38.1922 31.2142C39.0127 30.5877 39.4438 29.6975 39.4438 28.5022C39.4438 27.3273 39.0137 26.4579 38.1959 25.8509C37.3748 25.2414 36.1855 24.9167 34.5742 24.9167H29.6166V32.1744H34.5742C36.2152 32.1744 37.3987 31.8402 38.188 31.2175L38.1922 31.2142Z" fill="#0D0D0D"/>
<path d="M18.8793 21.4191V25.4608H5.82358V42.8163H0V21.4191H18.8793Z" fill="#0D0D0D"/>
<path d="M102.246 21.3002V25.3815H94.9662V42.6974H89.1426V25.3815H81.8631V21.3002H102.246Z" fill="#0D0D0D"/>
<path d="M123.08 37.8236C123.792 37.2953 124.488 36.6085 125.167 35.7632L129.438 38.0217C127.399 40.4785 124.924 42.0766 122.012 42.8163C120.589 43.1069 119.182 43.2522 117.79 43.2522C115.752 43.2522 113.989 42.988 112.501 42.4597C110.171 41.72 108.359 40.3992 107.065 38.4972C105.804 36.5688 105.173 34.4291 105.173 32.0781C105.173 29.9384 105.658 27.9968 106.629 26.2533C107.631 24.5098 109.12 23.1362 111.093 22.1323C113.067 21.2078 115.267 20.7455 117.693 20.7455C119.085 20.7455 120.427 20.9172 121.721 21.2606C123.048 21.5776 124.245 22.0531 125.313 22.6871C126.93 23.6645 128.16 25.0117 129.001 26.7288C129.874 28.4194 130.311 30.2289 130.311 32.1573C130.311 32.6064 130.295 32.9366 130.263 33.1479H111.287C111.514 35.8424 112.646 37.6387 114.684 38.5369C115.752 38.9331 116.933 39.1312 118.227 39.1312C119.068 39.1312 119.877 39.052 120.654 38.8935C121.592 38.6822 122.401 38.3255 123.08 37.8236ZM117.693 24.8664C116.27 24.8664 115.024 25.1834 113.957 25.8174C112.662 26.5307 111.837 27.7986 111.482 29.6214H124.051C123.889 28.4326 123.42 27.442 122.643 26.6495C121.899 25.8306 120.88 25.3023 119.586 25.0646C118.874 24.9325 118.243 24.8664 117.693 24.8664Z" fill="#0D0D0D"/>
<path d="M151.428 37.0708C151.881 36.4632 152.204 35.7499 152.398 34.931L158.125 36.2386C157.639 37.6387 156.814 38.9067 155.65 40.0426C154.517 41.1521 153.175 41.9578 151.622 42.4597C150.069 43.0144 148.37 43.2918 146.526 43.2918C144.65 43.2918 142.951 43.0144 141.43 42.4597C139.133 41.6936 137.354 40.3596 136.092 38.4576C134.83 36.5292 134.2 34.4159 134.2 32.1177C134.2 29.8195 134.83 27.693 136.092 25.7382C137.354 23.7834 139.133 22.3833 141.43 21.538C142.983 20.9832 144.666 20.7059 146.478 20.7059C148.289 20.7059 150.004 20.9832 151.622 21.538C153.336 22.1456 154.76 23.0569 155.892 24.2721C157.025 25.4608 157.834 26.8212 158.319 28.3534L152.398 29.1459C152.172 28.2213 151.848 27.4816 151.428 26.9269C150.91 26.2401 150.198 25.725 149.292 25.3815C148.419 25.0117 147.481 24.8268 146.478 24.8268C145.507 24.8268 144.569 25.0117 143.663 25.3815C142.789 25.7514 142.11 26.2665 141.625 26.9269C141.204 27.4816 140.88 28.2213 140.654 29.1459C140.428 30.044 140.314 31.0082 140.314 32.0385C140.314 33.0423 140.428 33.9933 140.654 34.8914C140.88 35.7896 141.204 36.516 141.625 37.0708C142.142 37.7576 142.838 38.2859 143.711 38.6557C144.617 38.9991 145.572 39.1708 146.575 39.1708C147.545 39.1708 148.467 38.9859 149.341 38.6161C150.247 38.2463 150.942 37.7312 151.428 37.0708Z" fill="#0D0D0D"/>
<path d="M168.3 33.6704V42.6974H162.477V21.3002H168.3V29.6214H180.433L186.305 21.3002H192.711L185.14 31.2533L193.681 42.6974H187.13L180.481 33.6704H168.3Z" fill="#0D0D0D"/>
<path fill-rule="evenodd" clip-rule="evenodd" d="M75.9198 40.6063C75.8686 40.6443 75.8203 40.6822 75.7691 40.7196C75.8117 40.6871 75.8572 40.6541 75.8999 40.6216C75.9056 40.6161 75.9141 40.6118 75.9198 40.6063ZM77.4781 26.0336C76.207 24.3285 74.444 23.018 72.1635 22.099C69.8375 21.1775 67.156 20.7082 64.0963 20.7082C61.1163 20.7082 58.4718 21.1916 56.1486 22.1431C53.8255 23.0946 52.0426 24.4223 50.7715 26.1231C49.4663 27.8263 48.8094 29.7765 48.8094 32.0012C48.8094 34.2583 49.4691 36.2238 50.7687 37.9191C52.0426 39.626 53.8226 40.9531 56.1458 41.9039C58.469 42.826 61.1163 43.2941 64.0963 43.2941C67.2328 43.2941 69.954 42.8242 72.2744 41.9033C74.5549 40.9837 76.298 39.6897 77.5293 38.0238C78.0098 37.3615 78.3965 36.6526 78.6923 35.8954C79.1501 34.7159 79.3832 33.4201 79.3832 32.0012C79.3832 29.6742 78.7406 27.694 77.4781 26.0336ZM53.9582 32.0012C53.9582 34.1394 54.9933 35.8206 57.0434 36.9682C59.0425 38.0545 60.9429 38.5654 64.0963 38.5654C65.811 38.5654 66.665 38.4116 68.0583 38.0955C69.1701 37.8437 70.1739 37.4889 71.0696 37.027C73.1795 35.9039 74.2345 34.1995 74.2345 32.0012C74.2345 29.8629 73.1966 28.1939 71.1436 27.077C69.1189 25.9656 67.2186 25.4369 64.0963 25.4369C60.9798 25.4369 59.0993 25.9485 57.1089 27.028C55.016 28.1443 53.9582 29.8304 53.9582 32.0012Z" fill="#0D0D0D"/>
<path d="M217.04 20C213.734 20 211.054 22.6863 211.054 26V33.4092L220.691 23.75L232.522 35.6075L229.995 38.1403L221.814 29.9404L211.5 40.2772C212.395 42.4616 214.538 44 217.04 44H229.013C232.32 44 235 41.3137 235 38V26C235 22.6863 232.32 20 229.013 20H217.04Z" fill="#0D0D0D"/>
</svg>
