<svg width="194" height="23" viewBox="0 0 194 23" fill="none" xmlns="http://www.w3.org/2000/svg">
<path fill-rule="evenodd" clip-rule="evenodd" d="M23.611 21.9936V0.596461H35.8056C38.8039 0.596461 41.179 1.24813 42.8779 2.58792C44.5974 3.92078 45.4494 5.64648 45.4494 7.7385C45.4494 9.13089 45.0707 10.3933 44.3063 11.5191L44.305 11.521C43.5365 12.6325 42.4141 13.5003 40.9483 14.1229C39.5068 14.7478 37.8027 15.054 35.8496 15.054H29.6166V21.9936H23.611ZM38.1922 10.5083C39.0127 9.88185 39.4438 8.99163 39.4438 7.79632C39.4438 6.62145 39.0137 5.75201 38.1959 5.145C37.3748 4.53549 36.1855 4.21085 34.5742 4.21085H29.6166V11.4685H34.5742C36.2152 11.4685 37.3987 11.1343 38.188 10.5116L38.1922 10.5083Z" fill="#0D0D0D"/>
<path d="M18.8793 0.713239V4.75493H5.82358V22.1104H0V0.713239H18.8793Z" fill="#0D0D0D"/>
<path d="M102.246 0.59436V4.67567H94.9662V21.9916H89.1426V4.67567H81.8631V0.59436H102.246Z" fill="#0D0D0D"/>
<path d="M123.08 17.1178C123.792 16.5894 124.488 15.9026 125.167 15.0573L129.438 17.3159C127.399 19.7726 124.924 21.3708 122.012 22.1104C120.589 22.401 119.182 22.5463 117.79 22.5463C115.752 22.5463 113.989 22.2821 112.501 21.7538C110.171 21.0141 108.359 19.6933 107.065 17.7914C105.804 15.863 105.173 13.7233 105.173 11.3722C105.173 9.23249 105.658 7.29089 106.629 5.54741C107.631 3.80394 109.12 2.43029 111.093 1.42647C113.067 0.501903 115.267 0.0396208 117.693 0.0396208C119.085 0.0396208 120.427 0.211323 121.721 0.554734C123.048 0.871729 124.245 1.34723 125.313 1.98122C126.93 2.95862 128.16 4.30585 129.001 6.0229C129.874 7.71355 130.311 9.52307 130.311 11.4515C130.311 11.9005 130.295 12.2307 130.263 12.4421H111.287C111.514 15.1365 112.646 16.9328 114.684 17.831C115.752 18.2272 116.933 18.4254 118.227 18.4254C119.068 18.4254 119.877 18.3461 120.654 18.1876C121.592 17.9763 122.401 17.6197 123.08 17.1178ZM117.693 4.16056C116.27 4.16056 115.024 4.47755 113.957 5.11154C112.662 5.82478 111.837 7.09277 111.482 8.91549H124.051C123.889 7.72676 123.42 6.73615 122.643 5.94366C121.899 5.12475 120.88 4.59643 119.586 4.35868C118.874 4.2266 118.243 4.16056 117.693 4.16056Z" fill="#0D0D0D"/>
<path d="M151.428 16.3649C151.881 15.7573 152.204 15.0441 152.398 14.2252L158.125 15.5328C157.639 16.9328 156.814 18.2008 155.65 19.3367C154.517 20.4462 153.175 21.2519 151.622 21.7538C150.069 22.3085 148.37 22.5859 146.526 22.5859C144.65 22.5859 142.951 22.3085 141.43 21.7538C139.133 20.9877 137.354 19.6537 136.092 17.7517C134.83 15.8234 134.2 13.7101 134.2 11.4118C134.2 9.11362 134.83 6.9871 136.092 5.0323C137.354 3.07749 139.133 1.67743 141.43 0.832107C142.983 0.277364 144.666 0 146.478 0C148.289 0 150.004 0.277364 151.622 0.832107C153.336 1.43968 154.76 2.35105 155.892 3.56619C157.025 4.75493 157.834 6.11536 158.319 7.6475L152.398 8.44C152.172 7.51543 151.848 6.77577 151.428 6.22102C150.91 5.5342 150.198 5.01909 149.292 4.67567C148.419 4.30585 147.481 4.12093 146.478 4.12093C145.507 4.12093 144.569 4.30585 143.663 4.67567C142.789 5.0455 142.11 5.56062 141.625 6.22102C141.204 6.77577 140.88 7.51543 140.654 8.44C140.428 9.33815 140.314 10.3024 140.314 11.3326C140.314 12.3364 140.428 13.2874 140.654 14.1855C140.88 15.0837 141.204 15.8101 141.625 16.3649C142.142 17.0517 142.838 17.58 143.711 17.9499C144.617 18.2933 145.572 18.465 146.575 18.465C147.545 18.465 148.467 18.2801 149.341 17.9102C150.247 17.5404 150.942 17.0253 151.428 16.3649Z" fill="#0D0D0D"/>
<path d="M168.3 12.9645V21.9916H162.477V0.59436H168.3V8.91549H180.433L186.305 0.59436H192.711L185.14 10.5475L193.681 21.9916H187.13L180.481 12.9645H168.3Z" fill="#0D0D0D"/>
<path fill-rule="evenodd" clip-rule="evenodd" d="M75.9198 19.9004C75.8686 19.9384 75.8203 19.9764 75.7691 20.0137C75.8117 19.9813 75.8572 19.9482 75.8999 19.9157C75.9056 19.9102 75.9141 19.9059 75.9198 19.9004ZM77.4781 5.32775C76.207 3.62266 74.444 2.31213 72.1635 1.39311C69.8375 0.471636 67.156 0.00231575 64.0963 0.00231575C61.1163 0.00231575 58.4718 0.485721 56.1486 1.43722C53.8255 2.38871 52.0426 3.7164 50.7715 5.4172C49.4663 7.12046 48.8094 9.07063 48.8094 11.2953C48.8094 13.5524 49.4691 15.5179 50.7687 17.2132C52.0426 18.9201 53.8226 20.2472 56.1458 21.1981C58.469 22.1201 61.1163 22.5882 64.0963 22.5882C67.2328 22.5882 69.954 22.1183 72.2744 21.1974C74.5549 20.2778 76.298 18.9838 77.5293 17.3179C78.0098 16.6556 78.3965 15.9468 78.6923 15.1895C79.1501 14.0101 79.3832 12.7143 79.3832 11.2953C79.3832 8.96832 78.7406 6.98812 77.4781 5.32775ZM53.9582 11.2953C53.9582 13.4335 54.9933 15.1147 57.0434 16.2623C59.0425 17.3486 60.9429 17.8596 64.0963 17.8596C65.811 17.8596 66.665 17.7058 68.0583 17.3896C69.1701 17.1378 70.1739 16.7831 71.0696 16.3211C73.1795 15.1981 74.2345 13.4936 74.2345 11.2953C74.2345 9.15702 73.1966 7.48807 71.1436 6.37115C69.1189 5.25974 67.2186 4.731 64.0963 4.731C60.9798 4.731 59.0993 5.24259 57.1089 6.32214C55.016 7.43844 53.9582 9.12455 53.9582 11.2953Z" fill="#0D0D0D"/>
</svg>
